<?xml version="1.0" encoding="UTF-8"?>
<svg width="72px" height="72px" viewBox="0 0 72 72" version="1.1" xmlns="http://www.w3.org/2000/svg" xmlns:xlink="http://www.w3.org/1999/xlink">
    <title>behance-logo</title>
    <g id="Page-1" stroke="none" stroke-width="1" fill="none" fill-rule="evenodd" fill-opacity="0.52">
        <g id="Artboard" transform="translate(-727.000000, -172.000000)" fill="#3E8071" fill-rule="nonzero">
            <g id="behance-logo" transform="translate(727.000000, 172.000000)">
                <path d="M28.9745678,28.5267315 C28.9745678,25.1303939 26.6639386,25.1303939 26.6639386,25.1303939 L25.440491,25.1303939 L17.1577289,25.1303939 L17.1577289,32.418046 L26.0746803,32.418046 C27.6155908,32.4173095 28.9745678,31.9245422 28.9745678,28.5267315 Z" id="Path"></path>
                <path d="M26.6646752,37.4517761 L17.1577289,37.4517761 L17.1577289,46.1801739 L26.2256777,46.1801739 C27.5898107,46.1411355 30.1074169,45.7139233 30.1074169,41.9375141 C30.1074169,37.4061176 26.6646752,37.4517761 26.6646752,37.4517761 Z" id="Path"></path>
                <path d="M51.0025166,32.4173095 C45.9577289,32.4173095 45.2543018,37.4517852 45.2543018,37.4517852 L55.9825837,37.4517852 C55.9832225,37.4517852 56.0473043,32.4173095 51.0025166,32.4173095 Z" id="Path"></path>
                <path d="M36,0 C16.117688,0 0,16.1184246 0,36 C0,55.8815754 16.117688,72 36,72 C55.882312,72 72,55.8815754 72,36 C72,16.1184246 55.882312,0 36,0 Z M43.8489207,21.2486547 L57.3237852,21.2486547 L57.3237852,25.2703427 L43.8489207,25.2703427 L43.8489207,21.2486547 Z M37.0385678,42.3426292 C37.0385678,52.3106701 26.6646752,51.9828951 26.6646752,51.9828951 L17.1577289,51.9828951 L16.8785678,51.9828951 L9.6697289,51.9828951 L9.6697289,19.3247263 L16.8785678,19.3247263 L17.1577289,19.3247263 L26.6639386,19.3247263 C31.8287877,19.3247263 35.9057187,22.176 35.9057187,28.0199693 C35.9057187,33.8646752 30.9220665,34.2351714 30.9220665,34.2351714 C37.4915601,34.2351714 37.0385678,42.3426292 37.0385678,42.3426292 Z M51.0665985,47.4934834 C56.4951407,47.4934834 56.3028951,43.9800307 56.3028951,43.9800307 L62.0503734,43.9800307 C62.0503734,53.3043069 50.8750895,52.6656982 50.8750895,52.6656982 C37.4643069,52.6656982 38.3268338,40.1807877 38.3268338,40.1807877 C38.3268338,40.1807877 38.3165217,27.6340051 50.8736164,27.6340051 C64.09289,27.6340051 62.2418824,41.8093504 62.2418824,41.8093504 L45.3191202,41.8093504 C45.3191202,47.8779744 51.0665985,47.4934834 51.0665985,47.4934834 Z" id="Shape"></path>
            </g>
        </g>
    </g>
</svg>