<?xml version="1.0" encoding="UTF-8"?>
<svg width="72px" height="72px" viewBox="0 0 72 72" version="1.1" xmlns="http://www.w3.org/2000/svg" xmlns:xlink="http://www.w3.org/1999/xlink">
    <title>instagram</title>
    <g id="Page-1" stroke="none" stroke-width="1" fill="none" fill-rule="evenodd">
        <g id="Artboard" transform="translate(-865.000000, -172.000000)" fill="#4E4E4E" fill-rule="nonzero">
            <g id="instagram" transform="translate(865.000000, 172.000000)">
                <path d="M42.890625,36 C42.890625,39.8056641 39.8056641,42.890625 36,42.890625 C32.1943359,42.890625 29.109375,39.8056641 29.109375,36 C29.109375,32.1943359 32.1943359,29.109375 36,29.109375 C39.8056641,29.109375 42.890625,32.1943359 42.890625,36 Z" id="Path"></path>
                <path d="M52.1147461,23.8084717 C51.7835083,22.9108887 51.255066,22.0984497 50.5684204,21.4315796 C49.9015503,20.744934 49.0896606,20.2164917 48.1915283,19.8852539 C47.4631348,19.6023559 46.3688965,19.265625 44.3534546,19.1738891 C42.1732178,19.0744629 41.5195313,19.0530395 36,19.0530395 C30.4799195,19.0530395 29.8262329,19.0739136 27.6465454,19.1733398 C25.6311035,19.265625 24.536316,19.6023559 23.8084718,19.8852539 C22.9103394,20.2164917 22.0979004,20.744934 21.4315796,21.4315796 C20.744934,22.0984497 20.2164917,22.9103394 19.8847046,23.8084717 C19.6018066,24.5368652 19.2650757,25.6316528 19.1733398,27.6470947 C19.0739136,29.8267822 19.0524902,30.4804687 19.0524902,36.0005493 C19.0524902,41.5200805 19.0739136,42.1737671 19.1733398,44.3540039 C19.2650757,46.3694458 19.6018066,47.463684 19.8847046,48.1920777 C20.2164917,49.09021 20.7443848,49.9020996 21.4310303,50.5689697 C22.0979004,51.2556152 22.90979,51.7840577 23.8079223,52.1152954 C24.536316,52.3987426 25.6311035,52.7354736 27.6465454,52.8272094 C29.8262329,52.9266358 30.4793702,52.9475098 35.9994507,52.9475098 C41.5200805,52.9475098 42.1737671,52.9266358 44.3529053,52.8272094 C46.3683472,52.7354736 47.4631348,52.3987426 48.1915283,52.1152954 C49.9943848,51.4198609 51.4193116,49.994934 52.1147461,48.1920777 C52.3976441,47.463684 52.734375,46.3694458 52.8266602,44.3540039 C52.9260864,42.1737671 52.9469605,41.5200805 52.9469605,36.0005493 C52.9469605,30.4804687 52.9260864,29.8267822 52.8266602,27.6470947 C52.7349243,25.6316528 52.3981934,24.5368652 52.1147461,23.8084717 L52.1147461,23.8084717 Z M36,46.6149902 C30.137146,46.6149902 25.3844605,41.862854 25.3844605,36 C25.3844605,30.137146 30.137146,25.3850098 36,25.3850098 C41.8623047,25.3850098 46.6149902,30.137146 46.6149902,36 C46.6149902,41.862854 41.8623047,46.6149902 36,46.6149902 Z M47.034668,27.4460449 C45.6646728,27.4460449 44.5539551,26.3353272 44.5539551,24.965332 C44.5539551,23.5953368 45.6646728,22.4846191 47.034668,22.4846191 C48.4046632,22.4846191 49.5153809,23.5953368 49.5153809,24.965332 C49.5148316,26.3353272 48.4046632,27.4460449 47.034668,27.4460449 Z" id="Shape"></path>
                <path d="M36,0 C16.1207886,0 0,16.1207886 0,36 C0,55.8792114 16.1207886,72 36,72 C55.8792114,72 72,55.8792114 72,36 C72,16.1207886 55.8792114,0 36,0 Z M56.5471801,44.5226441 C56.4472046,46.7232055 56.09729,48.2255859 55.5864258,49.5406493 C54.5125122,52.3174438 52.3174438,54.5125122 49.5406493,55.5864258 C48.2261352,56.09729 46.7232055,56.4466553 44.5231934,56.5471801 C42.3187867,56.6477051 41.614563,56.671875 36.0005493,56.671875 C30.3859863,56.671875 29.682312,56.6477051 27.4773559,56.5471801 C25.2773438,56.4466553 23.7744141,56.09729 22.4598999,55.5864258 C21.0800171,55.0673218 19.8308715,54.2537843 18.7981567,53.2018433 C17.7467652,52.1696777 16.9332275,50.9199829 16.4141235,49.5406493 C15.9032593,48.2261352 15.5533447,46.7232055 15.4533691,44.5231934 C15.3517456,42.3182374 15.328125,41.6140137 15.328125,36 C15.328125,30.3859863 15.3517456,29.6817626 15.4528199,27.4773559 C15.5527954,25.2767945 15.9021606,23.7744141 16.4130249,22.4593507 C16.9321289,21.0800171 17.7462158,19.8303223 18.7981567,18.7981567 C19.8303223,17.7462158 21.0800171,16.9326782 22.4593507,16.4135742 C23.7744141,15.90271 25.2767945,15.5533447 27.4773559,15.4528199 C29.6817626,15.3522949 30.3859863,15.328125 36,15.328125 C41.6140137,15.328125 42.3182374,15.3522949 44.5226441,15.4533691 C46.7232055,15.5533447 48.2255859,15.90271 49.5406493,16.4130249 C50.9199829,16.9321289 52.1696777,17.7462158 53.2023926,18.7981567 C54.2537843,19.8308715 55.0678711,21.0800171 55.5864258,22.4593507 C56.0978394,23.7744141 56.4472046,25.2767945 56.5477296,27.4773559 C56.6482544,29.6817626 56.671875,30.3859863 56.671875,36 C56.671875,41.6140137 56.6482544,42.3182374 56.5471801,44.5226441 L56.5471801,44.5226441 Z" id="Shape"></path>
            </g>
        </g>
    </g>
</svg>