<?xml version="1.0" encoding="UTF-8"?>
<svg width="72px" height="72px" viewBox="0 0 72 72" version="1.1" xmlns="http://www.w3.org/2000/svg" xmlns:xlink="http://www.w3.org/1999/xlink">
    <title>linkedin</title>
    <g id="Page-1" stroke="none" stroke-width="1" fill="none" fill-rule="evenodd" fill-opacity="0.523528839">
        <g id="Artboard" transform="translate(-567.000000, -172.000000)" fill="#3E8071" fill-rule="nonzero">
            <g id="linkedin" transform="translate(567.000000, 172.000000)">
                <path d="M36,0 C16.1207886,0 0,16.1207886 0,36 C0,55.8792114 16.1207886,72 36,72 C55.8792114,72 72,55.8792114 72,36 C72,16.1207886 55.8792114,0 36,0 Z M25.5388184,54.421875 L16.7711792,54.421875 L16.7711792,28.0442505 L25.5388184,28.0442505 L25.5388184,54.421875 Z M21.1552734,24.4423828 L21.0981445,24.4423828 C18.1560059,24.4423828 16.2531738,22.4170532 16.2531738,19.8858032 C16.2531738,17.2974243 18.2142335,15.328125 21.2135009,15.328125 C24.2127686,15.328125 26.0584717,17.2974243 26.1156007,19.8858032 C26.1156007,22.4170532 24.2127686,24.4423828 21.1552734,24.4423828 Z M57.1530762,54.421875 L48.3865356,54.421875 L48.3865356,40.3104859 C48.3865356,36.7640992 47.1170655,34.345459 43.9447632,34.345459 C41.5228272,34.345459 40.0803223,35.9769288 39.4464111,37.5518188 C39.2145996,38.1154175 39.15802,38.9031372 39.15802,39.6914062 L39.15802,54.421875 L30.3909301,54.421875 C30.3909301,54.421875 30.5057374,30.518921 30.3909301,28.0442505 L39.15802,28.0442505 L39.15802,31.7790527 C40.3231202,29.9816895 42.4077758,27.425171 47.0593872,27.425171 C52.8277587,27.425171 57.1530762,31.1951294 57.1530762,39.296997 L57.1530762,54.421875 Z" id="Shape"></path>
            </g>
        </g>
    </g>
</svg>