<?xml version="1.0" encoding="UTF-8"?>
<svg width="72px" height="72px" viewBox="0 0 72 72" version="1.1" xmlns="http://www.w3.org/2000/svg" xmlns:xlink="http://www.w3.org/1999/xlink">
    <title>twitter</title>
    <g id="Page-1" stroke="none" stroke-width="1" fill="none" fill-rule="evenodd">
        <g id="Artboard" transform="translate(-647.000000, -172.000000)" fill="#4E4E4E" fill-rule="nonzero">
            <g id="twitter" transform="translate(647.000000, 172.000000)">
                <path d="M36,0 C16.1207886,0 0,16.1207886 0,36 C0,55.8792114 16.1207886,72 36,72 C55.8792114,72 72,55.8792114 72,36 C72,16.1207886 55.8792114,0 36,0 Z M52.4371949,28.0689697 C52.453125,28.4232788 52.4608155,28.7792359 52.4608155,29.1368407 C52.4608155,40.0556031 44.1496582,52.6464844 28.9506226,52.6470337 L28.9511719,52.6470337 L28.9506226,52.6470337 C24.2841797,52.6470337 19.9418335,51.2792359 16.2850343,48.9353027 C16.9315796,49.0116577 17.5896606,49.0495605 18.2559814,49.0495605 C22.1275634,49.0495605 25.6904297,47.7290039 28.5188598,45.5125122 C24.9016113,45.4454956 21.8518066,43.0565186 20.7993164,39.7732544 C21.3030395,39.869934 21.8210449,39.9226684 22.3522339,39.9226684 C23.1064453,39.9226684 23.8370361,39.8210449 24.531372,39.6315308 C20.7504273,38.8745727 17.9022218,35.5330811 17.9022218,31.5318603 C17.9022218,31.4945069 17.9022218,31.4609985 17.9033203,31.4263915 C19.0167847,32.0454712 20.2901001,32.4179077 21.645813,32.4596558 C19.4271241,30.979248 17.968689,28.4485473 17.968689,25.581665 C17.968689,24.0677491 18.3779297,22.6494141 19.0876465,21.4282837 C23.1624757,26.4281617 29.2521973,29.7163696 36.1197509,30.0618897 C35.9780273,29.456543 35.9049683,28.8259277 35.9049683,28.1777344 C35.9049683,23.6162109 39.6057129,19.9154663 44.1688843,19.9154663 C46.5457764,19.9154663 48.6925048,20.920166 50.2003785,22.5263672 C52.0828858,22.1550293 53.8505859,21.4672852 55.4474488,20.520813 C54.8294678,22.4494629 53.5198975,24.0677491 51.8137207,25.0911255 C53.4852906,24.8911743 55.0783081,24.4478759 56.5587157,23.7897949 C55.4529419,25.4470825 54.0505371,26.902771 52.4371949,28.0689697 Z" id="Shape"></path>
            </g>
        </g>
    </g>
</svg>